<svg xmlns="http://www.w3.org/2000/svg" viewBox="0 0 1200 630">
  <!-- Source for og-default image. Social platforms need PNG/JPG: export this to assets/img/og-default.jpg (1200x630). -->
  <rect width="1200" height="630" fill="#F7F8FA"/>
  <g stroke="#15191D" stroke-opacity=".06"><line x1="100" y1="0" x2="100" y2="630"/><line x1="200" y1="0" x2="200" y2="630"/><line x1="300" y1="0" x2="300" y2="630"/><line x1="400" y1="0" x2="400" y2="630"/><line x1="500" y1="0" x2="500" y2="630"/><line x1="600" y1="0" x2="600" y2="630"/><line x1="700" y1="0" x2="700" y2="630"/><line x1="800" y1="0" x2="800" y2="630"/><line x1="900" y1="0" x2="900" y2="630"/><line x1="1000" y1="0" x2="1000" y2="630"/><line x1="1100" y1="0" x2="1100" y2="630"/></g>
  <image href="../icons/logo-mark.svg" x="80" y="70" width="64" height="64"/>
  <text x="80" y="330" font-family="Helvetica Neue, Arial, sans-serif" font-size="96" font-weight="700" letter-spacing="-3" fill="#15191D">SPACE DESIGN</text>
  <text x="80" y="390" font-family="Helvetica Neue, Arial, sans-serif" font-size="22" letter-spacing="5" fill="#3D444B">ARCHITECTS · PLANNERS · INTERIOR DESIGNERS · PMC</text>
  <rect x="80" y="450" width="1040" height="2" fill="#3F7196"/>
  <text x="80" y="520" font-family="Helvetica Neue, Arial, sans-serif" font-size="26" letter-spacing="4" fill="#15191D">30 YEARS OF EXPERIENCE</text>
  <text x="1120" y="520" text-anchor="end" font-family="Helvetica Neue, Arial, sans-serif" font-size="26" letter-spacing="4" fill="#3F7196">NAVI MUMBAI · PUNE</text>
</svg>
