<svg xmlns="http://www.w3.org/2000/svg" viewBox="0 0 1600 1100" preserveAspectRatio="xMidYMid slice">
  <!-- ILLUSTRATION PLACEHOLDER. REPLACE WITH CLIENT-SUPPLIED PLANS. -->
  <defs>
    <pattern id="grid" width="40" height="40" patternUnits="userSpaceOnUse"><path d="M40 0H0V40" fill="none" stroke="#15191D" stroke-opacity=".06"/></pattern>
    <pattern id="hatch" width="10" height="10" patternUnits="userSpaceOnUse" patternTransform="rotate(45)"><line x1="0" y1="0" x2="0" y2="10" stroke="#15191D" stroke-opacity=".25" stroke-width="1.5"/></pattern>
  </defs>
  <rect width="1600" height="1100" fill="#F7F8FA"/>
  <rect width="1600" height="1100" fill="url(#grid)"/>
  <g fill="none" stroke="#15191D" stroke-opacity=".35" stroke-width="2">
    <path d="M0 780 C 400 760, 700 820, 1600 700"/><path d="M0 840 C 400 820, 700 880, 1600 760"/>
    <path d="M520 0 L 600 1100"/><path d="M580 0 L 660 1100"/>
  </g>
  <polygon points="700,140 1420,190 1380,690 720,650" fill="none" stroke="#0066B1" stroke-width="3" stroke-dasharray="18 10"/>
  <g fill="#FFFFFF" stroke="#15191D" stroke-width="3">
    <rect x="780" y="230" width="220" height="140"/>
    <rect x="1060" y="250" width="260" height="110"/>
    <rect x="800" y="430" width="140" height="170"/>
    <rect x="990" y="420" width="330" height="190"/>
  </g>
  <rect x="990" y="420" width="330" height="190" fill="url(#hatch)"/>
  <g fill="#15191D" fill-opacity=".12">
    <circle cx="160" cy="220" r="46"/><circle cx="250" cy="300" r="34"/><circle cx="140" cy="380" r="40"/>
    <circle cx="1480" cy="900" r="44"/><circle cx="1380" cy="980" r="36"/>
  </g>
  <g fill="#E7EBEF" stroke="#15191D" stroke-opacity=".3" stroke-width="2">
    <rect x="120" y="500" width="260" height="170"/><rect x="200" y="920" width="300" height="120"/>
    <rect x="820" y="920" width="360" height="130"/><rect x="1450" y="200" width="150" height="260"/>
  </g>
  <g stroke="#0066B1" stroke-width="2">
    <line x1="700" y1="100" x2="1420" y2="150"/><line x1="700" y1="88" x2="700" y2="112"/><line x1="1420" y1="138" x2="1420" y2="162"/>
  </g>
  <g transform="translate(1480 1000)" fill="none" stroke="#15191D" stroke-width="2"><circle r="36"/><path d="M0 -30 L10 10 L0 2 L-10 10 Z" fill="#15191D"/></g>
</svg>
