<svg xmlns="http://www.w3.org/2000/svg" viewBox="0 0 344 344" role="img" aria-label="Space Design">
  <!-- Space Design mark, redrawn as vector from the company profile (July 2026). -->
  <g fill="#15191D">
    <rect x="167" y="40" width="10" height="264"/>
    <rect x="40" y="167" width="264" height="10"/>
    <polygon points="172,0 217,45 127,45"/>
    <polygon points="172,344 127,299 217,299"/>
    <polygon points="0,172 45,127 45,217"/>
    <polygon points="344,172 299,217 299,127"/>
  </g>
  <g fill="#44789F" stroke="#15191D" stroke-width="3">
    <rect x="52" y="52" width="104" height="104"/>
    <rect x="188" y="52" width="104" height="104"/>
    <rect x="52" y="188" width="104" height="104"/>
  </g>
  <g stroke="#15191D" stroke-width="3" stroke-linejoin="miter">
    <polygon points="257,183 293,219 257,255 221,219" fill="#FFFFFF"/>
    <polygon points="293,219 329,255 293,291 257,255" fill="#44789F"/>
    <polygon points="257,255 293,291 257,327 221,291" fill="#FFFFFF"/>
    <polygon points="221,219 257,255 221,291 185,255" fill="#FFFFFF"/>
  </g>
</svg>
